<svg version="1" xmlns="http://www.w3.org/2000/svg" width="722.667" height="722.667" viewBox="0 0 542.000000 542.000000"><path d="M274.4 15.8c-4.5.6-11.4 8.9-15.8 19.2-4.9 11.1-23.1 44.5-31.1 57-6.6 10.2-27.9 39.6-30.8 42.3-3.1 3-11 13.3-19 24.7-3.6 5.2-9 12.1-12 15.3-3 3.2-7.4 8.2-9.8 11.1-2.4 2.9-6.8 7.1-9.8 9.2-2.9 2.1-8.7 7.3-13 11.5-4.2 4.2-8.7 8.2-10.1 8.9-1.4.7-7.8 5.6-14.3 10.9-19.5 15.8-29.1 23.2-31.2 24-1.1.5-8.1 1.1-15.5 1.5-7.4.4-16.2.9-19.5 1.1-3.3.3-8.2.7-11 .9-12.2 1-18.5 2-18.5 2.7 0 .5-1.2.9-2.6.9-1.6 0-2.3.4-1.8 1.1.3.6 0 1.5-.7 2-.9.6 0 .9 2.9.9 2.3 0 4.2.5 4.2 1.1 0 .5.5.7 1.2.3.7-.4.8-.3.4.4s-3.7 1.3-7.9 1.4c-4 .1-5.6.3-3.4.5 2 .2 3.7.8 3.7 1.3s1 1.1 2.3 1.3c1.6.3 1.3.5-1 .6-3.7.1-4.6 2.1-1 2.2 2.1 0 2.1.1.2.8-1.1.5-2.4.6-3 .3-.6-.3-.6-.1-.2.4.5.5 1.3 1 1.8 1 .5.1 1.4.2 2 .3.5 0 .7.5.4 1.1-.3.5-3 1.1-5.8 1.2-3.4.1-1 .5 6.8 1.3 11 1.1 11.5 1.2 6 1.6-4.5.3-5.9.8-5.7 1.8.3 1.2 0 1.2-1.2.1-1-.7-1.6-.8-1.6-.2 0 .6-1.2 1.3-2.7 1.5-2.3.3-2.1.4.7.4 5.8 0 7 .3 7 1.4 0 .5-.5.7-1.2.3-.6-.4-.8-.3-.5.3 1.1 1.7 12.3 2.9 31.4 3.3 5.1.1 9.1.5 8.9.9-.3.4 1.1.8 3 .9 2.2.2 3.4-.2 3.4-1 0-1 .2-1 .9 0 .6 1 3.3 1.3 9.5 1.3 4.8 0 8.6.4 8.6.9s-.8.7-1.7.4c-2.6-.9-.5.6 10.5 7.2 5 3.1 9.2 5.8 9.2 6.1 0 .2-.6.1-1.2-.3-2.5-1.4.7 1.2 6.2 5.1 6.1 4.4 17.6 13.4 22.9 18 7.5 6.5 49.9 50.1 62.8 64.5 1.2 1.4 3.5 3.7 5 5.2 8.2 7.7 16.1 19.6 26.3 39.8 3.5 6.9 7.2 14.1 8.3 16 4.4 7.9 7.1 12.5 7.7 13 .4.3.9 1.2 1.3 2 .8 1.9 6.4 11.4 9.7 16.6 1.4 2.1 2.5 4.1 2.5 4.4 0 .3 2.5 5.2 5.4 11 3 5.8 5.9 11.5 6.5 12.7.6 1.3 2 2.3 3.1 2.3 1.2 0 4.1 2 6.5 4.5 6 6.1 9.5 7.6 16.4 7 8.3-.6 13.8-4.1 17.2-10.8.9-1.8 4.5-7.9 7.9-13.7 3.4-5.8 7.4-12.6 8.8-15.1 3.5-6.3 19.6-28 22.4-30.2 1.3-1 5.2-6.2 8.7-11.5 3.6-5.3 7.7-11.1 9.1-12.7 1.5-1.7 3.9-4.5 5.3-6.3 1.4-1.8 4.8-4.8 7.6-6.7 2.8-1.9 6.9-5.2 9.1-7.4 2.1-2.3 4.3-4.1 4.8-4.1 1.1 0 12-8.7 18.2-14.5 2.2-2 5.4-4.9 7-6.5 3.5-3.2 4.3-7.4 1.7-9-1.6-.9-1.6-1.1.2-2.5 1.7-1.3 1.6-1.8-.4-1.7-.3 0-.5-1.3-.5-2.9 0-1.6.4-2.9.9-2.9.6 0 .1-.6-1-1.4-1.8-1.4-1.8-1.5.6-2.5 2.3-.9 2.1-1-2-1.1-3.5-.1-4-.3-2.5-1 1.1-.5 1.6-.9 1-1-.5-.1-.1-.5 1-1 1.9-.7 1.8-.9-.8-1.9-1.6-.6-2.5-1.6-2.2-2.1 1-1.6-7.8-.2-13.1 2-2.5 1.1-5.1 1.7-5.6 1.3-.6-.3-.8-.1-.5.4.7 1.1-2.2 2.8-3.1 1.8-.3-.3.1-.5.8-.5.7 0 1.1-.3.7-.6-.8-.9-26.4 17.8-29.7 21.7-.3.3-3.3 3.1-6.8 6.1-6.2 5.6-23.1 24.9-25.3 29-.7 1.2-2 3.1-3 4.2-1.1 1.1-1.9 2.5-1.9 3 0 2.2-7.3 11.2-17.4 21.5-11 11.1-15.8 17.1-19 23.4l-2 3.8-2.1-5.3c-2.9-7.1-5.8-12.6-11.9-22.8-2.8-4.7-5.8-9.7-6.6-11.2-3.8-6.6-11-18-16-25.4-3-4.4-8.4-12.3-11.9-17.5-8.2-12-9-13-22.9-27.8-25.9-27.5-29-30.8-33-36.2-4.8-6.4-10-11.8-17.1-17.9-2.8-2.4-5.1-4.9-5.2-5.4 0-.6-2.7-3.4-5.9-6.3-3.2-2.8-5.3-5.3-4.7-5.6.7-.2 4.8-.2 9.2-.1 25.4.9 122.7 0 124.5-1.1 1-.6 33-.7 38-.1 1.9.3 9.1.7 16 1.1 11.6.5 14.4.7 25.5 2 3.8.4 16.9 1.4 27.9 2.1 7.8.4 60.8.4 63.3 0 2.3-.5 14.5-1 15.3-.6 1.3.5 9.2.5 9.5 0 .2-.3 6.5-.7 14.1-.8 7.5-.2 14-.4 14.3-.6.3-.2 3.5-.7 7.1-1.1 7.5-.8 8.3-1.2 7.6-3.1-.3-.9.1-1.4 1.4-1.4 1 0 2.2-.4 2.5-1 .3-.6 1.3-1 2.1-1s5.1-1.7 9.5-3.7c7.6-3.4 9.9-5.6 9.9-9.3 0-1.5-5-6.1-7.9-7.2-3.1-1.2-12.9-3.8-19.6-5.2-1.1-.2-7.4-.7-14-1-19.5-1.1-20-1.2-27-5.7-3.6-2.2-6.5-4.3-6.5-4.5 0-.3.6-.2 1.3.2 2.3 1.3-.6-1.1-8.8-7.1-4.4-3.3-8.2-6.2-8.5-6.5-.3-.3-2.1-1.8-4-3.4-9.4-7.7-33.6-32.6-53-54.5-3.6-4.1-8.6-9.7-11.3-12.6-2.6-2.9-5.6-6.3-6.6-7.6-1.1-1.3-4.7-5.3-8.1-8.9-6.3-6.6-13.5-17.9-21-33-12.5-25.2-16.4-32.7-18.1-35.1-1-1.4-3.4-5.7-5.3-9.7-2-3.9-4.1-7.4-4.6-7.7-.8-.5-4.4-7.2-4.5-8.5-.3-2-1.8-5-2.6-5-.5 0-.9-.5-.9-1.1 0-.6-2.1-5.5-4.7-10.9-4.1-8.7-4.8-9.8-6.5-8.9-1.4.8-1.8.6-1.8-.7 0-1-.2-1.5-.5-1.2-.3.3-3-1.9-5.9-4.8-2.9-3-6.2-5.4-7.2-5.5-1.1 0-3.2-.1-4.9-.2-1.6-.1-4-.1-5.1.1zM284.8 81c2.6 6 14.5 28 17.2 32 .9 1.4 2.7 4.5 4 7 1.4 2.5 6.7 11 11.9 19s11 16.9 12.8 19.9c3.5 5.6 12.8 17.6 17.3 22.2 5 5.1 12.6 13.5 16.1 17.9 2 2.5 6.2 7.2 9.3 10.5 3.2 3.3 7.6 8.7 9.8 12 2.3 3.3 8.3 10.1 13.5 15.2 5.1 5.1 9.3 9.6 9.3 10.1s1.8 2.3 4 4.2c2.1 1.8 3.7 3.6 3.5 4-.2.3-3.2.5-6.7.5-3.5-.1-23.6-.5-44.8-.9-21.2-.3-43.2-.9-49-1.2-11.5-.7-39.4-.6-50.5.1-18.5 1.3-83.5.5-91.5-1.1-.8-.1-8.4-.3-16.9-.3-17.3-.1-16.5.7-6.9-7.1 10.3-8.3 28.7-26.3 38.8-37.9 3.6-4 7-7.9 7.6-8.5 2.9-3.1 19.5-25.4 23.6-31.8 2.6-4 6.9-9.8 9.6-12.8 29-32.4 35.8-41.3 43.8-57 2-4.1 4.1-7.6 4.5-7.8.4-.2 2-4 3.5-8.5s2.9-7.5 3.2-6.7c.3.8 1.6 4 3 7z"/><path d="M279 111.8c-2.9 2.5-3.4 3.4-3.4 7.8-.1 4.9 3.9 16.4 5.6 16.4.4 0 .8.5.8 1.2 0 1.4 6.9 19.8 8 21.3.4.5 3.2 5.7 6.1 11.3 3 5.7 5.9 11.1 6.4 12 .6 1 2.5 4.3 4.3 7.5 9.1 15.6 30 39.7 41 47 11.1 7.4 17.3 10.1 19.5 8.7 1.2-.7 1.7-.7 1.2-.1-.3.6.1 1.1 1 1.1s1.3-.5.9-1.1c-.4-.8 0-.8 1.5 0 1.4.8 2.1.8 2.1.1 0-.6-.8-1.3-1.7-1.6-1-.3-3.1-1.2-4.8-2-2.1-1-2.3-1.2-.6-.8 1.6.4 2.1.3 1.7-.5-.9-1.4-.5-1.4 3.7.4 4.3 1.8 4.7 1.8 4.7.5 0-.6-.7-1-1.6-1-.8 0-1.2-.5-.9-1 .8-1.3-5.8-7.7-13.8-13.2-5.1-3.6-7.8-6.7-15.2-17.4-4.9-7.2-12-16.1-15.6-19.8-3.7-3.8-7.3-8-8-9.5-.8-1.4-2.5-4.6-3.9-7.1s-3.9-7.7-5.4-11.5c-1.6-3.9-4.4-9.5-6.1-12.5-3.9-6.7-5.1-10.1-7-20.9-1.5-8.5-3.5-13.1-5.8-13.1-.6 0-2.5-1.1-4.1-2.5-3.8-3.2-6.4-3.2-10.6.3zm87.6 126.3c.3.6-.5.3-2-.6-1.4-1-2.6-1.9-2.6-2.2 0-.7 3.9 1.7 4.6 2.8zM263.1 148.4c-1.9 2.3-1.5 8.9.9 14.2 1.2 2.7 3.2 7.8 4.6 11.3 4.9 13 17.6 34.5 27 46 10 12.3 21.6 21.1 27.5 21.1l3.4-.1-2.7-1.5c-3.5-1.9-3.6-2.7-.2-1.4 5.9 2.3 5.1.6-3-5.8-6.4-5-10.3-9.2-15.7-16.7-3.9-5.5-7.5-10.2-7.9-10.5-1.9-1.4-8.1-10.6-10.5-15.7-1.5-3.2-4.2-8.7-6-12.3-3.7-7.4-5.2-11.8-6.1-17.5-1.4-8.9-7.9-15.3-11.3-11.1zM409.8 354.7c.7.3 1.6.2 1.9-.1.4-.3-.2-.6-1.3-.5-1.1 0-1.4.3-.6.6z"/></svg>